# AST/ASF file generated using VICON BodyLanguage
# -----------------------------------------------
:version 1.10
:name VICON
:units
  mass 1.0
  length 0.45
  angle deg
:documentation
   .ast/.asf automatically generated from VICON data using
   VICON BodyBuilder and BodyLanguage model FoxedUp or BRILLIANT.MOD
:root
   order TX TY TZ RX RY RZ
   axis XYZ
   position 0 0 0  
   orientation 0 0 0 
:bonedata
  begin
     id 1 
     name lhipjoint
     direction 0.643272 -0.706573 0.294883 
     length 2.58915 
     axis 0 0 0  XYZ
  end
  begin
     id 2 
     name lfemur
     direction 0.34202 -0.939693 0  
     length 7.06802  
     axis 0 0 20  XYZ
    dof rx ry rz
    limits (-160.0 20.0)
           (-70.0 70.0)
           (-60.0 70.0)
  end
  begin
     id 3 
     name ltibia
     direction 0.34202 -0.939693 0   
     length 7.94147   
     axis 0 0 20   XYZ
    dof rx
    limits (-10.0 170.0)
  end
  begin
     id 4 
     name lfoot
     direction 0.0435058 -0.119531 0.991877   
     length 1.8399   
     axis -90 7.62852e-016 20   XYZ
    dof rx rz
    limits (-45.0 90.0)
           (-70.0 20.0)
  end
  begin
     id 5 
     name ltoes
     direction 1.53505e-011 -4.22157e-011 1   
     length 0.934412   
     axis -90 7.62852e-016 20   XYZ
    dof rx
    limits (-90.0 20.0)
  end
  begin
     id 6 
     name rhipjoint
     direction -0.636801 -0.711547 0.296959   
     length 2.57105  
     axis 0 0 0  XYZ 
  end
  begin
     id 7 
     name rfemur
     direction -0.34202 -0.939693 0   
     length 7.03285   
     axis 0 0 -20   XYZ
    dof rx ry rz
    limits (-160.0 20.0)
           (-70.0 70.0)
           (-70.0 60.0)
  end
  begin
     id 8 
     name rtibia
     direction -0.34202 -0.939693 0   
     length 7.99111   
     axis 0 0 -20   XYZ
    dof rx
    limits (-10.0 170.0)
 end
 begin
     id 9 
     name rfoot
     direction -0.0783088 -0.215152 0.973436   
     length 1.98785  
     axis -90 -7.62852e-016 -20   XYZ
    dof rx rz
    limits (-45.0 90.0)
           (-20.0 70.0)
  end
  begin
     id 10 
     name rtoes
     direction -1.53606e-011 -4.21943e-011 1   
     length 1.001   
     axis -90 -7.62852e-016 -20   XYZ
    dof rx
    limits (-90.0 20.0)
  end
  begin
     id 11 
     name lowerback
     direction 0.00141527 0.998403 -0.0564763   
     length 2.30486   
     axis 0 0 0   XYZ
    dof rx ry rz
    limits (-20.0 45.0)
           (-30.0 30.0)
           (-30.0 30.0)
  end
  begin
     id 12 
     name upperback
     direction 0.0125137 0.999915 0.00361315   
     length 2.30697   
     axis 0 0 0   XYZ
    dof rx ry rz
    limits (-20.0 45.0)
           (-30.0 30.0)
           (-30.0 30.0)
  end
  begin
     id 13 
     name thorax
     direction 0.0136417 0.999471 0.0295116   
     length 2.31005   
     axis 0 0 0   XYZ
    dof rx ry rz
    limits (-20.0 45.0)
           (-30.0 30.0)
           (-30.0 30.0)
  end
  begin
     id 14 
     name lowerneck
     direction 0.0766806 0.997047 0.00422047   
     length 1.68825   
     axis 0 0 0   XYZ
    dof rx ry rz
    limits (-20.0 45.0)
           (-30.0 30.0)
           (-30.0 30.0)
  end
  begin
     id 15 
     name upperneck
     direction -0.143512 0.985106 -0.0947088   
     length 1.69772   
     axis 0 0 0   XYZ
    dof rx ry rz
    limits (-20.0 45.0)
           (-30.0 30.0)
           (-30.0 30.0)
  end
  begin
     id 16
     name head
     direction -0.0539128 0.997849 -0.0372864  
     length 1.71187  
     axis 0 0 0   XYZ
    dof rx ry rz
    limits (-20.0 45.0)
           (-30.0 30.0)
           (-30.0 30.0)
  end
  begin
     id 17 
     name lclavicle
     direction 0.978251 0.207416 -0.00165765  
     length 3.35399  
     axis 0 0 0   XYZ
    dof ry rz
    limits (-20.0 10.0)
           (0.0 20.0)
  end
  begin
     id 18 
     name lhumerus
     direction 1 -4.48966e-011 -1.32191e-028   
     length 5.70706   
     axis 180 -30 -90   XYZ
    dof rx ry rz
    limits (-60.0 90.0)
           (-90.0 90.0)
           (-90.0 90.0)
  end
  begin
     id 19
     name lradius
     direction 1 -4.48976e-011 9.36106e-027   
     length 3.33243   
     axis 180 -30 -90   XYZ
    dof rx
    limits (-10.0 170.0)
  end
  begin
     id 20
     name lwrist
     direction 1 -4.48976e-011 1.1555e-026   
     length 1.66621   
     axis -5.7412e-015 90 90   XYZ
    dof ry
    limits (-180.0 0.0)
 end
  begin
     id 21 
     name lhand
     direction 1 -4.48939e-011 2.31113e-026   
     length 0.792687   
     axis -1.47463e-014 90 90   XYZ
    dof rx rz
    limits (-90.0 90.0)
           (-45.0 45.0)
  end
  begin
     id 22 
     name lfingers
     direction 1 -4.48866e-011 4.62274e-026   
     length 0.639085   
     axis -2.94925e-014 90 90   XYZ
    dof rx
    limits (0.0 90.0)
  end
  begin
     id 23
     name lthumb
     direction 0.707107 -6.34847e-011 0.707107   
     length 0.917601   
     axis -90 45 -6.68868e-015   XYZ
    dof rx rz
    limits (-45.0 45.0)
           (-45.0 45.0)
  end
  begin
     id 24 
     name rclavicle
     direction -0.981813 0.185514 0.0403428   
     length 3.47271  
     axis 0 0 0   XYZ 
    dof ry rz
    limits (-10.0 20.0)
           (-20.0 0.0)
  end
  begin
     id 25 
     name rhumerus
     direction -1 -4.48972e-011 -6.58544e-029  
     length 5.88176   
     axis 180 30 90   XYZ
    dof rx ry rz
    limits (-90.0 60.0)
           (-90.0 90.0)
           (-90.0 90.0)
  end
  begin
     id 26 
     name rradius
     direction -1 -4.48964e-011 8.36306e-027   
     length 3.28156   
     axis 180 30 90   XYZ
    dof rx
    limits (-10.0 170.0)
  end
  begin
     id 27 
     name rwrist
     direction -1 -4.48903e-011 1.15562e-026   
     length 1.64078   
     axis -5.7412e-015 -90 -90   XYZ
    dof ry
    limits (-180.0 0.0)
  end
  begin
     id 28
     name rhand
     direction -1 -4.49055e-011 2.31074e-026   
     length 0.863125   
     axis -1.47463e-014 -90 -90   XYZ
    dof rx rz
    limits (-90.0 90.0)
           (-45.0 45.0)
  end
  begin
     id 29
     name rfingers
     direction -1 -4.48994e-011 4.62188e-026   
     length 0.695873   
     axis -2.94925e-014 -90 -90   XYZ
    dof rx
    limits (0.0 90.0)
  end
  begin
     id 30
     name rthumb
     direction -0.707107 -6.35058e-011 0.707107   
     length 0.999139   
     axis -90 -45 6.68868e-015   XYZ
    dof rx rz
    limits (-45.0 45.0)
           (-45.0 45.0)
  end
:hierarchy
  begin
    root lhipjoint rhipjoint lowerback
    lhipjoint lfemur
    lfemur ltibia
    ltibia lfoot
    lfoot ltoes
    rhipjoint rfemur
    rfemur rtibia
    rtibia rfoot
    rfoot rtoes
    lowerback upperback
    upperback thorax
    thorax lowerneck lclavicle rclavicle
    lowerneck upperneck
    upperneck head
    lclavicle lhumerus
    lhumerus lradius
    lradius lwrist
    lwrist lhand lthumb
    lhand lfingers
    rclavicle rhumerus
    rhumerus rradius
    rradius rwrist
    rwrist rhand rthumb
    rhand rfingers
  end

#!OML:ASF \\Waltz\H\Terrain\Patient Classification 1\Animal2\Wednesday\Animal2.ASF
:FULLY-SPECIFIED
:DEGREES
886
root 0.79741 16.8946 -8.27532 -3.72478 -21.3418 19.0345
lowerback 6.00516 -1.00702 -0.010424
upperback -2.19643 -1.86617 -8.16358
thorax -5.98581 -1.13847 -8.47713
lowerneck 19.9821 20.0654 15.7415
upperneck -19.4556 26.7253 -31.9125
head -1.96277 15.4735 -13.298
rclavicle -2.38045e-014 2.68359e-015
rhumerus 31.3554 52.2167 -53.1262
rradius 96.9751
rwrist -17.1271
rhand -7.50159 18.9366
rfingers 7.12502
rthumb 18.3884 -10.2143
lclavicle -2.38045e-014 2.68359e-015
lhumerus 11.9033 13.2918 21.261
lradius 96.1166
lwrist -1.13137
lhand -53.166 10.5548
lfingers 7.12502
lthumb -25.6248 38.8506
rfemur -26.8133 15.1455 3.10603
rtibia 58.0407
rfoot -33.7276 -3.51599
rtoes 25.9699
lfemur -3.69787 -0.932736 -21.112
ltibia 25.5484
lfoot -18.6659 -2.6027
ltoes -17.9595
887
root 0.823073 16.8847 -8.25147 -3.81349 -21.6253 19.5687
lowerback 5.83905 -1.04608 -0.309349
upperback -2.33511 -1.94841 -8.16906
thorax -6.04002 -1.1727 -8.30071
lowerneck 20.4532 20.1888 15.4412
upperneck -19.6875 26.8024 -31.9857
head -2.11951 15.5675 -13.3779
rclavicle -5.9946e-015 -1.22451e-013
rhumerus 31.1398 52.4785 -52.8968
rradius 97.2025
rwrist -17.3667
rhand -7.56471 19.0489
rfingers 7.12502
rthumb 18.3276 -10.1077
lclavicle -5.9946e-015 -1.22451e-013
lhumerus 11.2159 13.3046 20.98
lradius 95.8276
lwrist -1.01822
lhand -53.0292 10.7446
lfingers 7.12502
lthumb -25.4937 39.0592
rfemur -27.062 15.5487 2.38847
rtibia 58.194
rfoot -33.8686 -3.73155
rtoes 25.6741
lfemur -3.09704 -0.664893 -21.6925
ltibia 24.4552
lfoot -17.5974 -2.05109
ltoes -19.9515
888
root 0.848045 16.8799 -8.22601 -3.74632 -21.8287 19.9097
lowerback 5.53609 -1.0991 -0.463956
upperback -2.40936 -2.02409 -8.17078
thorax -5.95023 -1.20493 -8.20484
lowerneck 20.687 20.2507 15.4309
upperneck -19.824 26.867 -32.1865
head -2.14567 15.6384 -13.4757
rclavicle -7.29912e-015 0
rhumerus 31.1385 52.5587 -52.5341
rradius 97.3919
rwrist -17.3398
rhand -7.70834 19.5348
rfingers 7.12502
rthumb 18.1895 -9.63472
lclavicle -7.29912e-015 0
lhumerus 10.6455 13.4053 20.6638
lradius 95.5244
lwrist -1.08097
lhand -52.6602 11.5221
lfingers 7.12502
lthumb -25.1402 39.8868
rfemur -27.387 15.8127 1.84079
rtibia 58.3639
rfoot -34.0434 -4.06687
rtoes 24.8339
lfemur -2.61481 -0.495781 -22.0766
ltibia 23.4064
lfoot -16.639 -1.73871
ltoes -20.6491
889
root 0.874647 16.8713 -8.20327 -3.79797 -22.1222 20.1525
lowerback 5.27296 -1.14489 -0.403349
upperback -2.34579 -2.07159 -8.28301
thorax -5.74627 -1.23058 -8.35915
lowerneck 20.6874 20.3615 15.6371
upperneck -19.8283 27.0743 -32.3249
head -2.03913 15.7455 -13.4952
rclavicle 5.09386e-016 -8.01102e-014
rhumerus 31.4879 52.4404 -52.1038
rradius 97.6935
rwrist -17.2527
rhand -7.61094 19.6076
rfingers 7.12502
rthumb 18.2832 -9.55315
lclavicle 5.09386e-016 -8.01102e-014
lhumerus 10.2006 13.6852 20.1742
lradius 95.3129
lwrist -0.749817
lhand -52.4052 11.6471
lfingers 7.12502
lthumb -24.8958 40.0458
rfemur -27.6077 16.1644 1.43798
rtibia 58.5162
rfoot -34.1961 -4.07162
rtoes 24.7696
lfemur -1.94378 -0.234506 -22.3242
ltibia 22.3482
lfoot -16.2736 -1.43244
ltoes -22.5808
890
root 0.903707 16.8608 -8.18378 -4.01808 -22.4287 20.5046
lowerback 5.19401 -1.19172 -0.4588
upperback -2.25374 -2.13931 -8.42861
thorax -5.61846 -1.26369 -8.4798
lowerneck 20.6642 20.5109 15.7305
upperneck -20.0182 27.2789 -32.3522
head -2.01966 15.8469 -13.4852
rclavicle 4.30928e-014 -4.90998e-014
rhumerus 32.0051 52.3293 -51.6139
rradius 98.1239
rwrist -17.4832
rhand -7.66564 19.1234
rfingers 7.12502
rthumb 18.2305 -10.0423
lclavicle 4.30928e-014 -4.90998e-014
lhumerus 9.70803 14.0575 19.645
lradius 95.2647
lwrist -0.0797334
lhand -52.1408 10.9629
lfingers 7.12502
lthumb -24.6425 39.3964
rfemur -27.704 16.564 0.956929
rtibia 58.6497
rfoot -34.2516 -4.04857
rtoes 24.6356
lfemur -1.20395 0.0743018 -22.6854
ltibia 21.2917
lfoot -16.2866 -0.936739
ltoes -27.1408
891
root 0.929423 16.8652 -8.16044 -4.18552 -22.6213 20.6371
lowerback 5.28953 -1.2837 -0.450521
upperback -2.24471 -2.26746 -8.40846
thorax -5.68189 -1.32911 -8.44781
lowerneck 20.7052 20.6145 15.6442
upperneck -20.3601 27.3475 -32.3629
head -2.11811 15.8946 -13.5071
rclavicle -8.77137e-015 -1.74931e-014
rhumerus 32.2965 52.3534 -51.1309
rradius 98.6355
rwrist -17.7283
rhand -7.82536 18.9061
rfingers 7.12502
rthumb 18.0769 -10.2739
lclavicle -8.77137e-015 -1.74931e-014
lhumerus 8.99624 14.3109 19.1977
lradius 95.2235
lwrist 0.359699
lhand -51.9419 10.7092
lfingers 7.12502
lthumb -24.4518 39.1686
rfemur -27.6796 16.9218 0.729723
rtibia 58.7709
rfoot -34.3122 -3.99883
rtoes 24.6104
lfemur -0.471458 0.221202 -22.8618
ltibia 20.2604
lfoot -16.1157 -0.930729
ltoes -28.8386
892
root 0.955147 16.8683 -8.13653 -4.15766 -22.8164 20.6931
lowerback 5.31311 -1.34608 -0.47777
upperback -2.38631 -2.35629 -8.25029
thorax -5.84904 -1.37356 -8.2485
lowerneck 20.8207 20.6886 15.4121
upperneck -20.5008 27.3733 -32.3126
head -2.21662 15.9227 -13.5019
rclavicle -1.35236e-014 -7.27552e-014
rhumerus 32.3996 52.4656 -50.6584
rradius 98.8579
rwrist -17.4701
rhand -7.88855 19.2059
rfingers 7.12502
rthumb 18.0161 -9.97964
lclavicle -1.35236e-014 -7.27552e-014
lhumerus 8.2201 14.3803 18.8379
lradius 95.0648
lwrist 0.585953
lhand -51.902 11.1178
lfingers 7.12502
lthumb -24.4135 39.5823
rfemur -27.8372 17.1551 0.521006
rtibia 58.922
rfoot -34.4374 -3.95221
rtoes 24.6024
lfemur 0.0618805 0.141295 -23.0042
ltibia 19.2671
lfoot -16.1172 -0.950726
ltoes -29.4192
893
root 0.984153 16.8558 -8.11997 -4.21707 -22.9963 21.0149
lowerback 5.28388 -1.37614 -0.752001
upperback -2.46805 -2.41776 -8.16298
thorax -5.91088 -1.39339 -7.9857
lowerneck 20.818 20.7725 15.1241
upperneck -20.4958 27.4112 -32.2231
head -2.26801 15.9469 -13.4455
rclavicle 4.97769e-014 1.98785e-014
rhumerus 32.6542 52.4477 -50.0309
rradius 99.0165
rwrist -17.0436
rhand -8.11322 19.3316
rfingers 7.12502
rthumb 17.7999 -9.87374
lclavicle 4.97769e-014 1.98785e-014
lhumerus 7.75466 14.4953 18.5451
lradius 94.8139
lwrist 0.685028
lhand -52.1408 11.9185
lfingers 7.12502
lthumb -24.6424 40.352
rfemur -28.0902 17.3297 0.0149815
rtibia 59.1246
rfoot -34.6466 -3.9446
rtoes 24.4842
lfemur 0.506892 -0.00653936 -23.4216
ltibia 18.3754
lfoot -16.2071 -0.351622
ltoes -32.3559
894
root 1.01372 16.8386 -8.10216 -4.42974 -23.1152 21.4376
lowerback 5.20839 -1.427 -0.927429
upperback -2.39151 -2.49981 -8.29126
thorax -5.79705 -1.42924 -8.0156
lowerneck 20.7461 20.7843 15.2971
upperneck -20.4803 27.4726 -32.3077
head -2.1941 15.973 -13.4584
rclavicle 4.58447e-015 7.83212e-014
rhumerus 32.9057 52.2254 -49.6535
rradius 99.3212
rwrist -16.9194
rhand -8.35826 19.0738
rfingers 7.12502
rthumb 17.5641 -10.1528
lclavicle 4.58447e-015 7.83212e-014
lhumerus 7.62453 14.7168 18.1781
lradius 94.5825
lwrist 0.756004
lhand -52.4547 12.9493
lfingers 7.12502
lthumb -24.9433 41.3415
rfemur -28.2012 17.526 -0.568458
rtibia 59.3389
rfoot -34.8326 -3.94099
rtoes 24.2415
lfemur 1.01516 0.09203 -23.9474
ltibia 17.6358
lfoot -15.8038 0.184294
ltoes -34.4002
895
root 1.04349 16.8259 -8.07843 -4.52103 -23.3222 21.6232
lowerback 5.08038 -1.52365 -0.782046
upperback -2.32789 -2.62189 -8.47672
thorax -5.69115 -1.50063 -8.29391
lowerneck 20.5144 20.7812 15.8853
upperneck -20.3204 27.6432 -32.4819
head -1.94405 16.0273 -13.4676
rclavicle 4.44035e-014 -1.21656e-013
rhumerus 33.0889 51.9483 -49.7024
rradius 99.5581
rwrist -17.1112
rhand -8.23895 19.0661
rfingers 7.12502
rthumb 17.6789 -10.1502
lclavicle 4.44035e-014 -1.21656e-013
lhumerus 7.32777 14.9787 17.5216
lradius 94.4487
lwrist 1.01265
lhand -52.6456 13.3602
lfingers 7.12502
lthumb -25.1262 41.7268
rfemur -28.3158 17.7817 -0.919518
rtibia 59.5456
rfoot -34.9078 -3.94713
rtoes 24.0126
lfemur 1.41703 0.442478 -24.2214
ltibia 17.0272
lfoot -15.5169 0.20545
ltoes -34.8873
896
root 1.07037 16.8186 -8.05651 -4.54636 -23.557 21.6021
lowerback 4.95844 -1.60577 -0.75222
upperback -2.24714 -2.71089 -8.37857
thorax -5.54302 -1.53937 -8.19293
lowerneck 20.2194 20.8136 15.9631
upperneck -20.2418 27.6942 -32.5699
head -1.83295 16.039 -13.4325
rclavicle -1.96051e-014 -4.05521e-014
rhumerus 33.4965 51.6657 -49.2108
rradius 99.8167
rwrist -17.4747
rhand -7.9392 19.1835
rfingers 7.12502
rthumb 17.9673 -10.0066
lclavicle -1.96051e-014 -4.05521e-014
lhumerus 6.69201 15.2761 16.9604
lradius 94.2234
lwrist 1.25656
lhand -52.9432 12.9257
lfingers 7.12502
lthumb -25.4114 41.252
rfemur -28.4201 18.0782 -1.02662
rtibia 59.7268
rfoot -34.9525 -3.63807
rtoes 24.874
lfemur 1.75207 0.776703 -24.262
ltibia 16.4728
lfoot -15.7226 0.0987539
ltoes -35.7161
